# This file uses centimeters as units for non-parametric coordinates.

mtllib Crystal.mtl
g default
v 0.000000 2.000000 -1.000000
v -1.000000 2.000000 -0.000000
v -0.000000 2.000000 1.000000
v 1.000000 2.000000 -0.000000
v 0.000000 4.000000 0.000000
v 0.000000 0.000000 0.000000
vt 0.002385 0.471195
vt 0.252684 0.477942
vt 0.502981 0.484690
vt 0.753614 0.486263
vt 0.999532 0.489823
vt 0.748908 0.855939
vt 0.759035 0.116134
vt 0.507644 0.483010
vt 0.262857 0.101799
vt 0.242545 0.854017
vn -0.666667 0.333333 -0.666667
vn -0.666667 0.333333 -0.666667
vn -0.666667 0.333333 -0.666667
vn -0.666667 0.333333 0.666667
vn -0.666667 0.333333 0.666667
vn -0.666667 0.333333 0.666667
vn 0.666667 0.333333 0.666667
vn 0.666667 0.333333 0.666667
vn 0.666667 0.333333 0.666667
vn 0.666667 0.333333 -0.666667
vn 0.666667 0.333333 -0.666667
vn 0.666667 0.333333 -0.666667
vn -0.666667 -0.333333 -0.666667
vn -0.666667 -0.333333 -0.666667
vn -0.666667 -0.333333 -0.666667
vn -0.666667 -0.333333 0.666667
vn -0.666667 -0.333333 0.666667
vn -0.666667 -0.333333 0.666667
vn 0.666667 -0.333333 0.666667
vn 0.666667 -0.333333 0.666667
vn 0.666667 -0.333333 0.666667
vn 0.666667 -0.333333 -0.666667
vn 0.666667 -0.333333 -0.666667
vn 0.666667 -0.333333 -0.666667
s off
g pCone1
usemtl initialShadingGroup
f 1/1/1 2/2/2 5/10/3
f 2/2/4 3/3/5 5/10/6
f 3/8/7 4/4/8 5/6/9
f 4/4/10 1/5/11 5/6/12
f 1/1/13 6/9/14 2/2/15
f 2/2/16 6/9/17 3/3/18
f 3/8/19 6/7/20 4/4/21
f 4/4/22 6/7/23 1/5/24
